<mxfile host="app.diagrams.net" modified="2024-04-26T12:38:22.007Z" agent="Mozilla/5.0 (Windows NT 10.0; Win64; x64) AppleWebKit/537.36 (KHTML, like Gecko) Chrome/124.0.0.0 Safari/537.36" etag="SwH5q9O58gMKDaHyFs3K" version="24.3.0" type="github">
  <diagram name="Page-1" id="ZklzrCmMmDZIbO0OwNck">
    <mxGraphModel dx="825" dy="488" grid="1" gridSize="10" guides="1" tooltips="1" connect="1" arrows="1" fold="1" page="1" pageScale="1" pageWidth="850" pageHeight="1100" math="0" shadow="0">
      <root>
        <mxCell id="0" />
        <mxCell id="1" parent="0" />
        <mxCell id="S9JoW31tpwUfReYzUPDB-14" style="edgeStyle=orthogonalEdgeStyle;rounded=0;orthogonalLoop=1;jettySize=auto;html=1;entryX=0.5;entryY=1;entryDx=0;entryDy=0;" edge="1" parent="1" source="S9JoW31tpwUfReYzUPDB-1" target="S9JoW31tpwUfReYzUPDB-10">
          <mxGeometry relative="1" as="geometry" />
        </mxCell>
        <mxCell id="S9JoW31tpwUfReYzUPDB-1" value="conv" style="shape=trapezoid;perimeter=trapezoidPerimeter;whiteSpace=wrap;html=1;fixedSize=1;rotation=90;fillColor=#6d8764;fontColor=#ffffff;strokeColor=#3A5431;" vertex="1" parent="1">
          <mxGeometry x="190" y="200" width="60" height="20" as="geometry" />
        </mxCell>
        <mxCell id="S9JoW31tpwUfReYzUPDB-16" style="edgeStyle=orthogonalEdgeStyle;rounded=0;orthogonalLoop=1;jettySize=auto;html=1;entryX=0.5;entryY=1;entryDx=0;entryDy=0;" edge="1" parent="1" source="S9JoW31tpwUfReYzUPDB-3" target="S9JoW31tpwUfReYzUPDB-10">
          <mxGeometry relative="1" as="geometry" />
        </mxCell>
        <mxCell id="S9JoW31tpwUfReYzUPDB-3" value="donv" style="shape=trapezoid;perimeter=trapezoidPerimeter;whiteSpace=wrap;html=1;fixedSize=1;rotation=90;fillColor=#6d8764;fontColor=#ffffff;strokeColor=#3A5431;" vertex="1" parent="1">
          <mxGeometry x="190" y="268" width="60" height="20" as="geometry" />
        </mxCell>
        <mxCell id="S9JoW31tpwUfReYzUPDB-18" style="edgeStyle=orthogonalEdgeStyle;rounded=0;orthogonalLoop=1;jettySize=auto;html=1;entryX=0.5;entryY=1;entryDx=0;entryDy=0;" edge="1" parent="1" source="S9JoW31tpwUfReYzUPDB-4" target="S9JoW31tpwUfReYzUPDB-10">
          <mxGeometry relative="1" as="geometry" />
        </mxCell>
        <mxCell id="S9JoW31tpwUfReYzUPDB-4" value="conv" style="shape=trapezoid;perimeter=trapezoidPerimeter;whiteSpace=wrap;html=1;fixedSize=1;rotation=90;fillColor=#6d8764;fontColor=#ffffff;strokeColor=#3A5431;" vertex="1" parent="1">
          <mxGeometry x="190" y="340" width="60" height="20" as="geometry" />
        </mxCell>
        <mxCell id="S9JoW31tpwUfReYzUPDB-5" value="Image 1" style="text;html=1;align=center;verticalAlign=middle;whiteSpace=wrap;rounded=0;" vertex="1" parent="1">
          <mxGeometry x="140" y="195" width="60" height="30" as="geometry" />
        </mxCell>
        <mxCell id="S9JoW31tpwUfReYzUPDB-6" value="Image 2" style="text;html=1;align=center;verticalAlign=middle;whiteSpace=wrap;rounded=0;" vertex="1" parent="1">
          <mxGeometry x="140" y="263" width="60" height="30" as="geometry" />
        </mxCell>
        <mxCell id="S9JoW31tpwUfReYzUPDB-8" value="Image 3" style="text;html=1;align=center;verticalAlign=middle;whiteSpace=wrap;rounded=0;" vertex="1" parent="1">
          <mxGeometry x="140" y="335" width="60" height="30" as="geometry" />
        </mxCell>
        <mxCell id="S9JoW31tpwUfReYzUPDB-10" value="Main Network" style="shape=trapezoid;perimeter=trapezoidPerimeter;whiteSpace=wrap;html=1;fixedSize=1;rotation=90;horizontal=0;fillColor=#e3c800;fontColor=#000000;strokeColor=#B09500;" vertex="1" parent="1">
          <mxGeometry x="320" y="225" width="68" height="108" as="geometry" />
        </mxCell>
        <mxCell id="S9JoW31tpwUfReYzUPDB-20" value="Output" style="text;html=1;align=center;verticalAlign=middle;whiteSpace=wrap;rounded=0;" vertex="1" parent="1">
          <mxGeometry x="410" y="264" width="60" height="30" as="geometry" />
        </mxCell>
      </root>
    </mxGraphModel>
  </diagram>
</mxfile>
